<svg width="27" height="27" viewBox="0 0 27 27" fill="none" xmlns="http://www.w3.org/2000/svg">
<path d="M13.5 0C6.07499 0 0 6.06149 0 13.527C0 20.277 4.94099 25.8795 11.394 26.892V17.442H7.96499V13.527H11.394V10.5435C11.394 7.15499 13.4055 5.29199 16.497 5.29199C17.9685 5.29199 19.5075 5.54849 19.5075 5.54849V8.88299H17.8065C16.1325 8.88299 15.606 9.92249 15.606 10.989V13.527H19.359L18.7515 17.442H15.606V26.892C18.7871 26.3895 21.6839 24.7664 23.7733 22.3155C25.8627 19.8647 27.0073 16.7476 27 13.527C27 6.06149 20.925 0 13.5 0Z" fill="white"/>
</svg>
