<svg width="36" height="36" viewBox="0 0 36 36" fill="none" xmlns="http://www.w3.org/2000/svg">
<circle cx="18" cy="18" r="18" fill="url(#paint0_linear_143_246)"/>
<path d="M24.8637 20.8115L21.5167 19.3771C21.3738 19.3162 21.2149 19.3033 21.0639 19.3405C20.913 19.3777 20.7783 19.4629 20.68 19.5833L19.1978 21.3942C16.8716 20.2975 14.9995 18.4254 13.9028 16.0992L15.7137 14.617C15.8343 14.5189 15.9197 14.3841 15.9569 14.2332C15.9941 14.0822 15.9811 13.9232 15.9199 13.7803L14.4855 10.4333C14.4183 10.2793 14.2994 10.1535 14.1494 10.0776C13.9994 10.0018 13.8276 9.9807 13.6637 10.018L10.5558 10.7352C10.3978 10.7717 10.2568 10.8606 10.1559 10.9876C10.0549 11.1145 9.99996 11.2719 10 11.4341C10 19.0992 16.2127 25.3 23.8659 25.3C24.0281 25.3001 24.1856 25.2452 24.3126 25.1442C24.4396 25.0433 24.5286 24.9023 24.5651 24.7442L25.2823 21.6363C25.3194 21.4716 25.2978 21.2991 25.2214 21.1486C25.145 20.9981 25.0185 20.8789 24.8637 20.8115Z" fill="white"/>
<defs>
<linearGradient id="paint0_linear_143_246" x1="36" y1="29.1708" x2="3.02261e-06" y2="10.5877" gradientUnits="userSpaceOnUse">
<stop stop-color="#5583D4"/>
<stop offset="1" stop-color="#8DB3F5"/>
</linearGradient>
</defs>
</svg>
