<svg width="29" height="29" viewBox="0 0 29 29" fill="none" xmlns="http://www.w3.org/2000/svg">
<path d="M22.6667 0H5.66667C2.55 0 0 2.55 0 5.66667V22.6667C0 25.7833 2.55 28.3333 5.66667 28.3333H22.6667C25.7833 28.3333 28.3333 25.7833 28.3333 22.6667V5.66667C28.3333 2.55 25.7833 0 22.6667 0ZM14.1667 21.25C10.2708 21.25 7.08333 18.0625 7.08333 14.1667C7.08333 10.2708 10.2708 7.08333 14.1667 7.08333C18.0625 7.08333 21.25 10.2708 21.25 14.1667C21.25 18.0625 18.0625 21.25 14.1667 21.25ZM21.9583 7.79167C21.1792 7.79167 20.5417 7.15417 20.5417 6.375C20.5417 5.59583 21.1792 4.95833 21.9583 4.95833C22.7375 4.95833 23.375 5.59583 23.375 6.375C23.375 7.15417 22.7375 7.79167 21.9583 7.79167Z" fill="white"/>
</svg>
