<svg width="27" height="27" viewBox="0 0 27 27" fill="none" xmlns="http://www.w3.org/2000/svg">
<path d="M24.8377 0.00242142H2.31166C2.02132 -0.0111786 1.73113 0.0326084 1.45773 0.131301C1.18433 0.229994 0.933086 0.381635 0.718354 0.577536C0.503639 0.773454 0.329657 1.0098 0.206396 1.27303C0.0831358 1.53627 0.0129926 1.82123 0 2.1116V24.6883C0.0170084 25.2959 0.266027 25.8742 0.695912 26.304C1.1258 26.7339 1.70395 26.983 2.31166 27H24.8377C25.4285 26.9737 25.9855 26.7169 26.3892 26.2847C26.793 25.8526 27.0114 25.2796 26.9975 24.6883V2.1116C27.0024 1.82897 26.9494 1.54835 26.842 1.28691C26.7345 1.02549 26.5747 0.788775 26.3724 0.591271C26.1702 0.393784 25.9298 0.239696 25.6659 0.138439C25.402 0.0371812 25.1202 -0.00910315 24.8377 0.00242142ZM8.43673 22.5117H4.50521V10.4809H8.43673V22.5117ZM6.56377 8.6585C6.28943 8.66807 6.01606 8.62079 5.76087 8.51965C5.50566 8.41851 5.27412 8.26569 5.08082 8.07079C4.8875 7.87588 4.73656 7.64311 4.63752 7.38709C4.53845 7.13107 4.49342 6.85733 4.50521 6.58307C4.49308 6.30584 4.53903 6.02915 4.64012 5.77073C4.7412 5.5123 4.89519 5.27786 5.09219 5.08245C5.2892 4.88702 5.52487 4.73494 5.7841 4.63596C6.04335 4.53696 6.32041 4.49326 6.59752 4.50763C6.87187 4.49808 7.14523 4.54535 7.40043 4.64649C7.65564 4.74763 7.88718 4.90045 8.08048 5.09535C8.2738 5.29026 8.42473 5.52303 8.52378 5.77905C8.62284 6.03507 8.66788 6.30881 8.65608 6.58307C8.66821 6.8603 8.62227 7.13699 8.52118 7.39541C8.42009 7.65384 8.2661 7.88828 8.06911 8.08369C7.87209 8.27912 7.63642 8.4312 7.37719 8.53018C7.11795 8.62918 6.84089 8.67288 6.56377 8.6585ZM22.5092 22.5117H18.5608V15.931C18.5608 14.3618 18.004 13.2819 16.6035 13.2819C16.1685 13.2856 15.7451 13.4238 15.3918 13.6776C15.0383 13.9313 14.772 14.2882 14.6293 14.6993C14.5196 15.0074 14.4737 15.3345 14.4943 15.661V22.5117H10.6134V10.4809H14.4943V12.1682C14.8394 11.5343 15.3528 11.0082 15.9781 10.6478C16.6035 10.2875 17.3162 10.1071 18.0377 10.1265C20.5856 10.1265 22.5092 11.8139 22.5092 15.4079V22.5117Z" fill="white"/>
</svg>
