<svg width="26" height="24" viewBox="0 0 26 24" fill="none" xmlns="http://www.w3.org/2000/svg">
<path d="M12.6184 0C7.39213 0 3.15479 4.02975 3.15479 9C3.15479 10.9571 3.82946 12.753 4.9509 14.2238C4.97101 14.259 4.97417 14.2984 4.99704 14.3321L11.3061 23.3321C11.5987 23.7495 12.0916 24 12.6184 24C13.1452 24 13.6381 23.7495 13.9307 23.3321L20.2398 14.3321C20.2631 14.2984 20.2658 14.259 20.2859 14.2238C21.4074 12.753 22.0821 10.9571 22.0821 9C22.0821 4.02975 17.8447 0 12.6184 0ZM12.6184 12C10.8763 12 9.46388 10.6567 9.46388 9C9.46388 7.34325 10.8763 6 12.6184 6C14.3605 6 15.773 7.34325 15.773 9C15.773 10.6567 14.3605 12 12.6184 12Z" fill="#6591DF"/>
</svg>
