<svg width="20" height="19" viewBox="0 0 20 19" fill="none" xmlns="http://www.w3.org/2000/svg">
<path d="M2.48242 0.793945C3.69975 -0.416474 5.70432 -0.20143 6.72363 1.16016L7.98438 2.84473C8.81367 3.95248 8.74099 5.50055 7.75684 6.47949L7.51855 6.71582C7.50841 6.74442 7.48126 6.83959 7.50977 7.02344C7.57296 7.43093 7.9134 8.29548 9.3418 9.71582C10.7697 11.1356 11.6404 11.4757 12.0537 11.5391C12.2432 11.5682 12.341 11.5396 12.3701 11.5293L12.7773 11.125C13.6526 10.2548 14.9975 10.0917 16.0811 10.6807L17.9912 11.7197C19.6272 12.609 20.0405 14.8323 18.7002 16.165L17.2803 17.5781C16.8328 18.0231 16.2306 18.3944 15.4961 18.4629C13.6871 18.6315 9.46819 18.4157 5.03613 14.0088C0.898772 9.89481 0.104457 6.30699 0.00390625 4.53906C-0.046899 3.64524 0.375838 2.88875 0.913086 2.35449L2.48242 0.793945ZM12.8506 12.1104C13.342 12.6047 13.3762 12.6395 13.3779 12.6426L13.377 12.6445L13.374 12.6475C13.372 12.6494 13.3694 12.6512 13.3672 12.6533C13.3627 12.6576 13.3578 12.6622 13.3525 12.667C13.3421 12.6766 13.33 12.6871 13.3164 12.6982C13.2893 12.7207 13.2558 12.7466 13.2158 12.7734C13.1359 12.827 13.0301 12.8851 12.8975 12.9346C12.6266 13.0355 12.2691 13.0894 11.8262 13.0215C10.9595 12.8884 9.81105 12.2975 8.28418 10.7793C6.75803 9.26178 6.16167 8.11911 6.02734 7.25391C5.9587 6.81146 6.01408 6.45367 6.11621 6.18262C6.16624 6.04987 6.22519 5.94411 6.2793 5.86426C6.30617 5.82462 6.33191 5.79161 6.35449 5.76465C6.36572 5.75126 6.37617 5.73891 6.38574 5.72852C6.39045 5.7234 6.39517 5.71827 6.39941 5.71387L6.41016 5.70312L7.10938 6.40234L6.41211 5.70117L6.69922 5.41602C7.12759 4.98982 7.1876 4.28204 6.78418 3.74316L5.52246 2.05859C5.01574 1.38234 4.07159 1.32888 3.54004 1.85742L1.9707 3.41797C1.64096 3.74586 1.48243 4.10716 1.50195 4.45312C1.58178 5.8577 2.22254 9.09599 6.09375 12.9453C10.1549 16.9834 13.9063 17.1038 15.3564 16.9688C15.6526 16.9412 15.9479 16.787 16.2227 16.5137L17.6426 15.1016C18.22 14.5274 18.0931 13.4817 17.2754 13.0371L15.3643 11.999C14.8368 11.7125 14.2189 11.8067 13.835 12.1885L13.3799 12.6416L12.8506 12.1104ZM12.3428 11.5576C12.3397 11.5605 12.3365 11.5641 12.333 11.5674C12.3313 11.5691 12.329 11.5706 12.3271 11.5723C12.3263 11.5731 12.326 11.5744 12.3252 11.5752L12.3232 11.5762L12.3428 11.5566V11.5576Z" fill="#6591DF"/>
<path d="M2.48242 0.793945C3.69975 -0.416474 5.70432 -0.20143 6.72363 1.16016L7.98438 2.84473C8.81367 3.95248 8.74099 5.50055 7.75684 6.47949L7.51855 6.71582C7.50841 6.74442 7.48126 6.83959 7.50977 7.02344C7.57296 7.43093 7.9134 8.29548 9.3418 9.71582C10.7697 11.1356 11.6404 11.4757 12.0537 11.5391C12.2432 11.5682 12.341 11.5396 12.3701 11.5293L12.7773 11.125C13.6526 10.2548 14.9975 10.0917 16.0811 10.6807L17.9912 11.7197C19.6272 12.609 20.0405 14.8323 18.7002 16.165L17.2803 17.5781C16.8328 18.0231 16.2306 18.3944 15.4961 18.4629C13.6871 18.6315 9.46819 18.4157 5.03613 14.0088C0.898772 9.89481 0.104457 6.30699 0.00390625 4.53906C-0.046899 3.64524 0.375838 2.88875 0.913086 2.35449L2.48242 0.793945ZM12.8506 12.1104C13.342 12.6047 13.3762 12.6395 13.3779 12.6426L13.377 12.6445L13.374 12.6475C13.372 12.6494 13.3694 12.6512 13.3672 12.6533C13.3627 12.6576 13.3578 12.6622 13.3525 12.667C13.3421 12.6766 13.33 12.6871 13.3164 12.6982C13.2893 12.7207 13.2558 12.7466 13.2158 12.7734C13.1359 12.827 13.0301 12.8851 12.8975 12.9346C12.6266 13.0355 12.2691 13.0894 11.8262 13.0215C10.9595 12.8884 9.81105 12.2975 8.28418 10.7793C6.75803 9.26178 6.16167 8.11911 6.02734 7.25391C5.9587 6.81146 6.01408 6.45367 6.11621 6.18262C6.16624 6.04987 6.22519 5.94411 6.2793 5.86426C6.30617 5.82462 6.33191 5.79161 6.35449 5.76465C6.36572 5.75126 6.37617 5.73891 6.38574 5.72852C6.39045 5.7234 6.39517 5.71827 6.39941 5.71387L6.41016 5.70312L7.10938 6.40234L6.41211 5.70117L6.69922 5.41602C7.12759 4.98982 7.1876 4.28204 6.78418 3.74316L5.52246 2.05859C5.01574 1.38234 4.07159 1.32888 3.54004 1.85742L1.9707 3.41797C1.64096 3.74586 1.48243 4.10716 1.50195 4.45312C1.58178 5.8577 2.22254 9.09599 6.09375 12.9453C10.1549 16.9834 13.9063 17.1038 15.3564 16.9688C15.6526 16.9412 15.9479 16.787 16.2227 16.5137L17.6426 15.1016C18.22 14.5274 18.0931 13.4817 17.2754 13.0371L15.3643 11.999C14.8368 11.7125 14.2189 11.8067 13.835 12.1885L13.3799 12.6416L12.8506 12.1104ZM12.3428 11.5576C12.3397 11.5605 12.3365 11.5641 12.333 11.5674C12.3313 11.5691 12.329 11.5706 12.3271 11.5723C12.3263 11.5731 12.326 11.5744 12.3252 11.5752L12.3232 11.5762L12.3428 11.5566V11.5576Z" stroke="#6591DF"/>
</svg>
