<svg width="53" height="54" viewBox="0 0 53 54" fill="none" xmlns="http://www.w3.org/2000/svg">
<path d="M3.29346 18.0961C3.29344 15.3953 4.02805 12.7461 5.41746 10.4364C6.80687 8.12674 8.79794 6.24487 11.1744 4.99526C13.5508 3.74565 16.2216 3.1761 18.8968 3.3485C21.5719 3.5209 24.149 4.42864 26.348 5.97311" stroke="#6591DE" stroke-width="1.91" stroke-miterlimit="10"/>
<path d="M49.4026 18.0962C49.389 14.7475 48.2487 11.5025 46.1679 8.89123C44.0871 6.27998 41.1888 4.4569 37.9467 3.71986C34.7045 2.98283 31.3101 3.3754 28.318 4.83344C25.3259 6.29147 22.9131 8.72879 21.4736 11.7472" stroke="#6591DE" stroke-width="1.91" stroke-miterlimit="10"/>
<path d="M49.4026 18.0962V21.2375C49.4003 26.2707 48.4156 31.2543 46.5043 35.9045C44.5964 40.5466 41.7984 44.764 38.2706 48.3151C37.6252 48.9688 36.8124 49.4291 35.9226 49.6447C35.0328 49.8602 34.1011 49.8225 33.2313 49.5357C32.3616 49.249 31.588 48.7245 30.9968 48.0207C30.4056 47.3169 30.02 46.4615 29.8831 45.5498L28.5437 36.5903C28.5437 36.0036 28.3124 35.4409 27.9006 35.0261C27.4889 34.6112 26.9304 34.3781 26.3481 34.3781C25.7657 34.3781 25.2073 34.6112 24.7955 35.0261C24.3837 35.4409 24.1524 36.0036 24.1524 36.5903L22.7911 45.5498C22.6541 46.4615 22.2686 47.3169 21.6774 48.0207C21.0862 48.7245 20.3126 49.249 19.4428 49.5357C18.5731 49.8225 17.6414 49.8602 16.7516 49.6447C15.8618 49.4291 15.0489 48.9688 14.4036 48.3151C10.8744 44.7603 8.07631 40.5386 6.1698 35.892C4.26329 31.2455 3.28584 26.2655 3.2935 21.2375V18.0962" stroke="#6591DE" stroke-width="1.91" stroke-miterlimit="10"/>
<path d="M26.3481 18.0962H43.1231" stroke="#6591DE" stroke-width="1.91" stroke-miterlimit="10"/>
<path d="M34.7354 9.64551V26.5469" stroke="#6591DE" stroke-width="1.91" stroke-miterlimit="10"/>
</svg>
