<svg width="15" height="15" viewBox="0 0 15 15" fill="none" xmlns="http://www.w3.org/2000/svg">
<path d="M7.14941 0.5C7.24811 0.500142 7.40093 0.544006 7.68359 0.913086C7.96701 1.28318 8.28631 1.85309 8.74707 2.67969L8.98145 3.10059C9.217 3.52308 9.39932 3.86905 9.70312 4.09961C10.0099 4.33243 10.3881 4.40743 10.8447 4.51074L11.2998 4.61426C12.1959 4.81702 12.8101 4.957 13.2314 5.12305C13.6428 5.28519 13.7416 5.42292 13.7793 5.54395C13.8187 5.67053 13.8133 5.85344 13.5674 6.24414C13.318 6.6402 12.8981 7.13338 12.2881 7.84668L11.9775 8.20898C11.664 8.57565 11.4072 8.86217 11.293 9.22949C11.1795 9.59465 11.226 9.97987 11.2734 10.4697L11.3203 10.9531C11.4125 11.9043 11.4743 12.5635 11.4531 13.0391C11.432 13.5138 11.3315 13.6585 11.2393 13.7285C11.155 13.7923 11.0102 13.848 10.583 13.7256C10.1487 13.6011 9.57255 13.3375 8.7334 12.9512L8.30762 12.7549C7.88199 12.5589 7.53248 12.3859 7.14941 12.3857C6.76615 12.3857 6.41605 12.5588 5.99023 12.7549L5.56445 12.9512C4.72529 13.3375 4.14915 13.6011 3.71484 13.7256C3.28757 13.848 3.14277 13.7923 3.05859 13.7285C2.96629 13.6584 2.86587 13.5138 2.84473 13.0391C2.82354 12.5635 2.88536 11.9043 2.97754 10.9531L3.02441 10.4697C3.07188 9.97993 3.11843 9.59471 3.00488 9.22949C2.89066 8.86216 2.63392 8.57569 2.32031 8.20898L2.00977 7.84668C1.39976 7.13337 0.979835 6.64021 0.730469 6.24414C0.484515 5.85343 0.479191 5.67052 0.518555 5.54395C0.5563 5.42291 0.655077 5.28519 1.06641 5.12305C1.48776 4.957 2.10195 4.81701 2.99805 4.61426L3.45312 4.51074C3.90968 4.40744 4.28793 4.33241 4.59473 4.09961C4.89841 3.86907 5.08084 3.52318 5.31641 3.10059L5.55078 2.67969C6.01155 1.8531 6.33084 1.28318 6.61426 0.913086C6.89739 0.543398 7.05074 0.5 7.14941 0.5Z" fill="#FFEB52" stroke="#FFEB52"/>
</svg>
