<svg width="22" height="21" viewBox="0 0 22 21" fill="none" xmlns="http://www.w3.org/2000/svg">
<path d="M10.5182 0C4.73317 0 0 4.72265 0 10.5392C0 15.7983 3.84965 20.1633 8.87733 20.9522V13.5895H6.20571V10.5392H8.87733V8.21468C8.87733 5.57462 10.4445 4.12312 12.8532 4.12312C13.9997 4.12312 15.1987 4.32296 15.1987 4.32296V6.92095H13.8735C12.5692 6.92095 12.159 7.73085 12.159 8.5618V10.5392H15.083L14.6097 13.5895H12.159V20.9522C14.6375 20.5607 16.8945 19.2961 18.5224 17.3865C20.1503 15.4771 21.042 13.0484 21.0363 10.5392C21.0363 4.72265 16.3031 0 10.5182 0Z" fill="#6591DF"/>
</svg>
