<svg width="19" height="19" viewBox="0 0 19 19" fill="none" xmlns="http://www.w3.org/2000/svg">
<path d="M17.4796 0.00170408H1.62684C1.42251 -0.00786695 1.21829 0.0229483 1.02588 0.0924035C0.833475 0.161859 0.656661 0.268577 0.505543 0.406442C0.354437 0.54432 0.231997 0.710649 0.145252 0.895895C0.058507 1.08115 0.00914354 1.28169 0 1.48605V17.3745C0.0119697 17.8021 0.187217 18.209 0.489749 18.5115C0.792282 18.814 1.19916 18.9893 1.62684 19.0013H17.4796C17.8953 18.9828 18.2873 18.802 18.5715 18.4979C18.8556 18.1938 19.0093 17.7906 18.9996 17.3745V1.48605C19.003 1.28714 18.9657 1.08965 18.8901 0.905668C18.8144 0.721693 18.702 0.555102 18.5596 0.416108C18.4173 0.277126 18.2481 0.168687 18.0624 0.0974266C17.8767 0.0261663 17.6784 -0.00640636 17.4796 0.00170408ZM5.93736 15.8426H3.17055V7.37595H5.93736V15.8426ZM4.61927 6.09344C4.4262 6.10017 4.23381 6.0669 4.05422 5.99572C3.87462 5.92454 3.71167 5.817 3.57563 5.67983C3.43959 5.54267 3.33337 5.37885 3.26366 5.19868C3.19395 5.0185 3.16225 4.82586 3.17055 4.63285C3.16201 4.43775 3.19435 4.24302 3.26549 4.06116C3.33663 3.87929 3.445 3.7143 3.58364 3.57678C3.72229 3.43925 3.88814 3.33222 4.07057 3.26256C4.25302 3.19289 4.448 3.16214 4.64302 3.17226C4.83609 3.16554 5.02847 3.1988 5.20807 3.26997C5.38767 3.34115 5.55062 3.4487 5.68665 3.58586C5.8227 3.72303 5.92892 3.88684 5.99863 4.06702C6.06834 4.24719 6.10004 4.43984 6.09173 4.63285C6.10027 4.82795 6.06794 5.02267 5.9968 5.20453C5.92565 5.38641 5.81729 5.55139 5.67865 5.68892C5.54 5.82645 5.37415 5.93347 5.19171 6.00313C5.00927 6.0728 4.81429 6.10356 4.61927 6.09344ZM15.8409 15.8426H13.0622V11.2115C13.0622 10.1071 12.6703 9.34715 11.6847 9.34715C11.3786 9.34976 11.0807 9.44702 10.832 9.62561C10.5832 9.80421 10.3958 10.0554 10.2954 10.3446C10.2182 10.5615 10.1859 10.7917 10.2004 11.0215V15.8426H7.4692V7.37595H10.2004V8.56342C10.4432 8.11728 10.8046 7.74703 11.2447 7.49339C11.6847 7.23986 12.1863 7.1129 12.6941 7.12654C14.4872 7.12654 15.8409 8.31405 15.8409 10.8434V15.8426Z" fill="#6591DF"/>
</svg>
